<?xml version="1.0" standalone="no"?>
<!DOCTYPE svg PUBLIC "-//W3C//DTD SVG 20010904//EN"
 "http://www.w3.org/TR/2001/REC-SVG-20010904/DTD/svg10.dtd">
<svg version="1.0" xmlns="http://www.w3.org/2000/svg"
 width="180.000000pt" height="180.000000pt" viewBox="0 0 180.000000 180.000000"
 preserveAspectRatio="xMidYMid meet">

<g transform="translate(0.000000,180.000000) scale(0.100000,-0.100000)"
fill="#000000" stroke="none">
<path d="M100 901 l0 -301 30 0 30 0 0 227 c0 125 4 223 8 218 5 -6 49 -108
98 -228 l89 -218 34 3 35 3 90 222 91 223 3 -225 2 -225 35 0 35 0 0 300 0
300 -43 0 -43 0 -99 -241 c-55 -132 -102 -242 -106 -244 -3 -3 -51 104 -106
238 l-99 242 -42 3 -42 3 0 -300z"/>
<path d="M975 1164 c-8 -20 -15 -38 -15 -40 0 -3 -167 -460 -185 -506 -6 -15
-1 -18 33 -18 l40 0 28 83 29 82 120 3 120 3 30 -86 29 -85 38 0 c21 0 38 2
38 3 0 2 -39 109 -86 238 -47 129 -95 261 -107 294 -21 57 -24 60 -59 63 -35
3 -38 0 -53 -34z m100 -198 l45 -126 -94 0 -94 0 35 98 c19 53 40 112 45 130
5 19 11 32 14 29 2 -2 25 -61 49 -131z"/>
<path d="M1270 1165 l0 -35 95 0 95 0 0 -265 0 -265 35 0 35 0 0 265 0 265 96
0 95 0 -3 33 -3 32 -222 3 -223 2 0 -35z"/>
</g>
</svg>
